# xmcd CD database file
#
# Track frame offsets:
#	150
#	20172
#	37276
#	58731
#	85580
#	107698
#	131396
#	152164
#	173309
#	198060
#	221108
#	241329
#
# Disc length: 3370 seconds
#
# Revision: 7
# Processed by: cddbd v1.5.2PL0 Copyright (c) Steve Scherf et al.
# Submitted via: CDex 1.51
#
DISCID=9c0d280c
DTITLE=Café Del Mar - Café Del Mar - Volumen Dieciocho)
DYEAR=2012
DGENRE=Ambient
TTITLE0=Afterlife - Espalmador
TTITLE1=Gelka - Have You Kept Your Ticket?
TTITLE2=Ganga and Erik Satie - Gymnastics
TTITLE3=Faithless - Love Is My Condition (feat. Mia Maestro)
TTITLE4=Aromabar - Simple Life
TTITLE5=Kid Stone - Rio Pt 1 (feat. Lovely Laura)
TTITLE6=Silent Way - The Cloud
TTITLE7=James Bright - No Better Feeling
TTITLE8=No Logo - Vibrafone
TTITLE9=Hannah Ild - Right Beside You (Afterlife Mix)
TTITLE10=Hybrid - Blind Side
TTITLE11=Underworld - To Heal
EXTD=YEAR: 2012
EXTT0=
EXTT1=
EXTT2=
EXTT3=
EXTT4=
EXTT5=
EXTT6=
EXTT7=
EXTT8=
EXTT9=
EXTT10=
EXTT11=
PLAYORDER=
